<?xml version="1.0" encoding="utf-8"?>
<!-- Generator: Adobe Illustrator 23.0.6, SVG Export Plug-In . SVG Version: 6.00 Build 0)  -->
<svg version="1.1" xmlns="http://www.w3.org/2000/svg" xmlns:xlink="http://www.w3.org/1999/xlink" x="0px" y="0px" width="473.7px"
	 height="382.5px" viewBox="0 0 473.7 382.5" style="enable-background:new 0 0 473.7 382.5;" xml:space="preserve">
<style type="text/css">
	.st0{fill:#EDEEEF;}
	.st1{display:none;opacity:0.7;fill:#F6F9FC;}
	.st2{fill:none;stroke:#5D7B8C;stroke-linecap:round;stroke-linejoin:round;stroke-miterlimit:10;}
	.st3{fill:none;stroke:#5D7B8C;stroke-miterlimit:10;}
	.st4{fill:#EDDA50;}
	.st5{fill:#C66E5F;}
	.st6{fill:#49C59A;}
	.st7{fill:#FFFFFF;stroke:#5D7B8C;stroke-linecap:round;stroke-linejoin:round;stroke-miterlimit:10;}
	.st8{fill:#5D7B8C;stroke:#5D7B8C;stroke-linecap:round;stroke-linejoin:round;stroke-miterlimit:10;}
	.st9{fill:#4AC59A;stroke:#5D7B8C;stroke-linecap:round;stroke-linejoin:round;stroke-miterlimit:10;}
	.st10{fill:#F6F9FC;stroke:#5D7B8C;stroke-linecap:round;stroke-linejoin:round;stroke-miterlimit:10;}
</style>
<g id="Background_Simple">
	<g>
		<path class="st0" d="M259.6,28.7c0,0-61.9-7.9-111.2,37c-49.3,44.8-63.6,115.6-76.8,172.7C58.5,295.4,84.1,345,132.4,359.5
			c48.3,14.6,69.8-27.2,129.8-42.1c60-14.9,78.1-9.8,120.8-54.9c42.7-45.1,34.1-127.6-18.4-178.6C312,33,259.6,28.7,259.6,28.7z"/>
		<path class="st1" d="M259.6,28.7c0,0-61.9-7.9-111.2,37c-49.3,44.8-63.6,115.6-76.8,172.7C58.5,295.4,84.1,345,132.4,359.5
			c48.3,14.6,69.8-27.2,129.8-42.1c60-14.9,78.1-9.8,120.8-54.9c42.7-45.1,34.1-127.6-18.4-178.6C312,33,259.6,28.7,259.6,28.7z"/>
	</g>
</g>
<g id="Landscape">
	<line class="st2" x1="11.8" y1="143.8" x2="466.6" y2="143.8"/>
	<g>
		<path class="st2" d="M35.3,143.8c0,0,64.2-40.9,73.6-40.9c9.4,0,69.8,40.5,69.8,40.5s125.6-47.5,136.7-46.9
			c11.2,0.6,41.1,15.8,42.8,16.4c1.8,0.6,26.4-6.5,34-3.5c7.6,2.9,60,34.5,60,34.5L35.3,143.8z"/>
		<path class="st3" d="M159.4,143.8c-6.8-4.6-19.4-13.4-20.8-16.3c-2-4-8,0-15-2c-7-2-14.6-22.6-14.6-22.6
			c-9.4,0-73.6,40.9-73.6,40.9L159.4,143.8z"/>
		<path class="st3" d="M322,117.8c-7.5-5.8-11.7-10.4-11.7-10.4l3.5-10.8c-18.7,2.8-135,46.8-135,46.8s-0.1-0.1-0.4-0.2l-1.1,0.4
			l275.1,0.3c0,0-0.1-0.1-0.3-0.2c-8.2-1.6-20-4-21-4.2c-1.7-0.4-16.2-2.1-16.2-2.1s-14.6-4.6-17.5-6.2
			c-2.9-1.7-13.3-12.1-12.1-14.2c1.2-2.1,5.4-7.9,5.4-7.9l-1.1-0.3c-9.6-1-29.7,4.6-31.3,4.1l-17.2,5.3
			C341.1,118.2,329.5,123.6,322,117.8z"/>
	</g>
	<g>
		<polyline class="st2" points="473.2,286.1 242.4,143.8 0.5,292.8 		"/>
		<line class="st2" x1="142" y1="189.7" x2="35.9" y2="250.2"/>
		<line class="st2" x1="62.9" y1="226" x2="8.9" y2="254.8"/>
		<line class="st2" x1="331.9" y1="186.9" x2="384" y2="215.7"/>
		<line class="st2" x1="380.3" y1="206.4" x2="438.9" y2="237.1"/>
	</g>
</g>
<g id="Arrows">
	<polygon class="st4" points="405.9,382.5 469.9,382.5 387.3,305.1 398.4,305.1 339.6,273.3 338,305.1 349.1,305.1 	"/>
	<polygon class="st5" points="1.8,382.5 65.8,382.5 122.5,305.1 133.6,305.1 132,273.3 73.2,305.1 84.3,305.1 	"/>
	<polygon class="st6" points="178.7,382.5 288.9,382.5 263.1,272.3 280,272.3 233.8,233.5 187.6,272.3 204.6,272.3 	"/>
</g>
<g id="Clouds">
	<g>
		<g>
			<g>
				<path class="st2" d="M91.5,96.6c-2.5-1.3-3.6-0.2-4.5-1.3c-0.9-1.1,2.5-4-4.2-6.9c0,0-0.4-6.3-9.6-6.5c-9.2-0.2-6.7,6.3-9.2,7.8
					c-2.5,1.6-3.1-0.9-5.6,0.7c-2.5,1.6-1.3,4.7-3.4,5.1c-2,0.4-4.7-2-7.1-0.4c-2.5,1.6-2.5,2.9-3.6,2.9s-3.4-0.9-4.7,0
					c-1.3,0.9-2.9,2-2.9,2h56.5C93.3,99.9,94,97.9,91.5,96.6z"/>
			</g>
		</g>
		<path class="st2" d="M58.1,95.6c-0.3,0.2-0.6,0.3-1,0.5"/>
		<path class="st2" d="M70.2,85.2c0,0-1.8,0.7-2.2,2.7c-0.4,2-1.4,3.4-2.5,3.5s-5.2-0.3-5.9,1.2c-0.2,0.5-0.3,1-0.4,1.4"/>
	</g>
</g>
<g id="Character">
	<g>
		<g>
			<polygon class="st7" points="221.3,42.6 223.8,57 242.6,56.5 245.8,42.3 			"/>
			<path class="st7" d="M217.2,32.5c0,0-3-1.7-3,3c0,4.7,4.6,7.8,5.9,7.8c1.4,0,1.5-1.2,1.2-2.7C220.9,39.1,217.2,32.5,217.2,32.5z"
				/>
			<path class="st7" d="M247.5,32.4c0,0,2.9-2,3.3,2.8c0.4,4.7-3.8,8.2-5.2,8.3c-1.3,0.1-1.6-1-1.4-2.6
				C244.4,39.3,247.5,32.4,247.5,32.4z"/>
			<path class="st8" d="M220,13.9c0,0-4.7,6.2-4.7,11.5s3.2,12.6,5.3,16.8c2.1,4.1,4.7,8.8,6.2,9.1c1.5,0.3,11.8,0.3,13.5-0.9
				c1.8-1.2,4.7-4.1,5.9-10.3s2.9-15.3,2.9-15.3s6.5-0.9,7.3-5c0.9-4.1-5-6.5-6.8-9.1c-1.8-2.6,3.2-5-1.8-8.2
				c-5-3.2-9.1-0.9-12.6,0.3c-3.5,1.2-3.2-3.8-7.3-1.8c-4.1,2.1-3.8,5.3-3.8,5.3s-2.9-0.3-2.9-1.8c0-1.5-2.9-1.5-3.8,3.2
				C216.5,12.5,220,13.9,220,13.9z"/>
		</g>
		<path class="st7" d="M245.6,53.4c0,0-13,0-18.6,0.5c-5.6,0.5-7.6,6.9-7.6,6.9s10-1.7,17.7-2c7.8-0.3,12.7-0.2,12.7-0.2L245.6,53.4
			z"/>
		<g>
			<path class="st9" d="M282.6,65.7c0,0,16.7,66.1,16.5,68.3c-0.3,2.2-30.7,12-30.7,12l-3.1-10.6l13.1-9.5l-6.4-17.8
				C272,108.1,280.1,69.9,282.6,65.7z"/>
			<g>
				<path class="st8" d="M297.6,133.4c0.1-0.7-2.2-11.8-3.7-16.5l-20.7-14c-0.7,3.2,0.1,4.5,0.1,4.5l7.5,20.9l-15.4,7.2l3.1,9
					C268.5,144.5,297.3,135.6,297.6,133.4z"/>
				<path class="st8" d="M275.5,92.5l19.4,22.5c-0.7-2.8-1.4-5.8-2.2-8.9l-17.2-14.1C275.5,92.2,275.5,92.4,275.5,92.5z"/>
			</g>
		</g>
		<g>
			<path class="st7" d="M167,179.6c0,0-4.3,13.8-4.7,16.6c-0.4,2.8-1.9,4.1-0.6,6.5c1.3,2.4,7.4,5,8.8,5.6c1.3,0.6,3.9-1.7,3.9-1.7
				s1.5,1.1,2.6-1.3c1.1-2.4,1.5-6.9,1.5-8.9c0-2-3.7-7.4-4.1-9.1c-0.4-1.7-0.6-4.1-0.6-4.1L167,179.6z"/>
			<path class="st2" d="M173.7,189.9c0,0,0.2,6-0.2,6.7c-0.4,0.7-6.3,4.1-6.3,4.1"/>
			<line class="st2" x1="168.8" y1="199.7" x2="171.4" y2="203.6"/>
			<path class="st2" d="M173.5,196.6c0,0,2-0.4,2.2,1.3c0.2,1.7-0.7,7.8-1.3,8.8"/>
		</g>
		<path class="st8" d="M214.1,334.5c0,0,0.8,9.8,2.5,11.2c1.7,1.4,6.7,2.8,9.5,2c2.8-0.8,5-2.8,5-2.8l0.6-11.4
			C231.6,333.4,220.2,337,214.1,334.5z"/>
		<path class="st8" d="M201.2,187.3c0,0,5,43.8,5.3,51.6c0.3,7.8-2.8,23.7-1.7,32.1c1.1,8.4,5,34,5,34l3.3,18.4c0,0-2.8,3.6-2,6.1
			c0.8,2.5,2,5.9,2,5.9s5.3,3.3,9.5,3.6c4.2,0.3,7.8-2,8.4-3.1c0.6-1.1,1.4-12.5,1.4-15.3c0-2.8-1.7-10-2-15.6
			c-0.3-5.6,2-30.1,2-37.9c0-7.8,0.8-30.4,1.1-31.2c0.3-0.8,1.7-37.6,1.7-37.6l0.6-5.6L201.2,187.3z"/>
		<g>
			<path class="st8" d="M233.6,316.9c0,0-4.7,3.9-4.7,7.5c0,3.6,1.4,6.7,1.4,6.7l2.2,1.1c0,0-0.8,2.2-2,6.7
				c-1.1,4.5,2.5,17,3.1,18.1c0.6,1.1,5.9,1.4,5.9,1.4s3.3-3.9,4.7-8.4c1.4-4.5,1.4-15.3,1.4-18.4c0-3.1,0.8-7,0.8-7
				S240.8,312.7,233.6,316.9z"/>
			<path class="st10" d="M236.6,321.7c-3.9-3.1-7,0.8-7,0.8l-0.5,0.3c-0.2,0.5-0.3,1.1-0.3,1.6c0,3.6,1.4,6.7,1.4,6.7l2.2,1.1
				c0,0-0.8,2.2-2,6.7c-1.1,4.5,2.5,17,3.1,18.1c0.6,1.1,5.9,1.4,5.9,1.4s2-2.3,3.5-5.3c0.7-5.1,0.7-10.9-0.7-16.4
				C240.5,330.3,240.5,324.7,236.6,321.7z"/>
		</g>
		<g>
			<path class="st9" d="M234.4,192.9l12,59.1c0,0-7,19.2-7.5,27.3c-0.6,8.1-4.2,30.7-4.5,32.9c-0.3,2.2-0.8,4.7-0.8,4.7
				s5.6-0.6,8.4,2.5c2.8,3.1,5.9,10.3,5.9,10.3s8.1-22,10.9-28.2c2.8-6.1,11.7-30.4,12-38.8c0.3-8.4,2.8-53.5,2.8-59.7
				c0-6.1,0-13.9,0-13.9S237.2,193.1,234.4,192.9z"/>
			<path class="st2" d="M266.5,257.3c-4.2-5.6-17.8-5.6-17.8-5.6s7.2-2.2,15.1-1.7"/>
			<path class="st8" d="M234.4,192.9l4.1,20.5c3-2.6,18.7-15.5,34.9-20.6c0-2.1,0-3.5,0-3.5S237.2,193.1,234.4,192.9z"/>
		</g>
		<rect x="167" y="199.1" class="st8" width="3.7" height="18.2"/>
		<rect x="161.7" y="214.8" class="st8" width="14.2" height="58.6"/>
		<g>
			<path class="st9" d="M219.4,60.9c0,0-0.4,0.2-1,0.6c-2.5,1.5-8.7,5.2-9.3,5.6c-0.8,0.6-21.5,7.5-21.5,10.3
				c0,2.8-5.6,36.8-5.6,36.8s-10,20.9-11.4,25.9c-1.4,5-5.9,41.8-5.9,41.8l12,6.1c0,0,11.4-26.2,15.9-38.8
				c4.5-12.5,8.6-31.5,8.6-31.5l3.1,19.5l-13.9,48.2c0,0,20.4,8.4,33.5,9.5c13.1,1.1,32.3-0.6,38.8-2c6.4-1.4,20.4-3.3,20.4-3.3
				s-4.5-17-7.2-25.4c-2.8-8.4-5.6-27.6-5.6-27.6l-0.3-1.4l12.8-69.7l-29-4.5l-3.8-2.6C249.8,58.7,227.6,58,219.4,60.9z"/>
			<polygon class="st8" points="201,115.9 194.3,93 199.4,125.3 			"/>
			<path class="st2" d="M231.5,91.1c0.7,0.8,1.3,1.5,1.8,2"/>
			<path class="st2" d="M216,70.7c0,0,7.6,10.6,13.2,17.6"/>
			<path class="st2" d="M213.8,72.1c0,0,7.5,10.6,10.6,15.3"/>
			<path class="st2" d="M268.6,139.7c0,0-11.1,23.5-15.4,29.5"/>
			<path class="st2" d="M255.5,174.2c-0.9,1.8-1.8,3.5-2.7,5.2"/>
			<path class="st2" d="M266.9,148.6c0,0-4.2,10.5-9.1,21"/>
			<path class="st2" d="M220.5,161.7c0.6,0.8,1.3,1.6,1.9,2.3"/>
			<path class="st2" d="M206.6,138.8c-0.7,1.1,5.4,11.7,12,20.4"/>
			<path class="st2" d="M207.5,145.6c0,0,6,13.2,9,18"/>
		</g>
	</g>
</g>
<g id="Graphics">
	<circle class="st2" cx="416.1" cy="90" r="3.5"/>
	<circle class="st2" cx="121.1" cy="265.5" r="3.5"/>
	<circle class="st2" cx="38.6" cy="173" r="3.5"/>
	<circle class="st2" cx="120.6" cy="69.5" r="4"/>
	<g>
		<polygon class="st2" points="432.2,168.8 437.1,173 439.6,173 432.2,166.7 424.8,173 427.2,173 		"/>
		<polygon class="st2" points="432.2,173.7 437.1,177.9 439.6,177.9 432.2,171.5 424.8,177.9 427.2,177.9 		"/>
	</g>
	<g>
		<polygon class="st2" points="363.6,79.9 371.2,86.5 375,86.5 363.6,76.6 352.1,86.5 355.9,86.5 		"/>
		<polygon class="st2" points="363.6,87.4 371.2,94 375,94 363.6,84.2 352.1,94 355.9,94 		"/>
	</g>
	<g>
		<polygon class="st2" points="417.6,293.9 425.2,300.6 429,300.6 417.6,290.7 406.1,300.6 409.9,300.6 		"/>
		<polygon class="st2" points="417.6,301.5 425.2,308.1 429,308.1 417.6,298.2 406.1,308.1 409.9,308.1 		"/>
	</g>
	<g>
		<polygon class="st2" points="88.3,184.1 93.2,188.3 95.6,188.3 88.3,182 81.1,188.3 83.5,188.3 		"/>
		<polygon class="st2" points="88.3,188.9 93.2,193 95.6,193 88.3,186.8 81.1,193 83.5,193 		"/>
	</g>
	<g>
		<polygon class="st2" points="55.7,304.3 60.6,308.5 63,308.5 55.7,302.2 48.5,308.5 50.9,308.5 		"/>
		<polygon class="st2" points="55.7,309.1 60.6,313.2 63,313.2 55.7,307 48.5,313.2 50.9,313.2 		"/>
	</g>
</g>
</svg>
